<mxfile host="app.diagrams.net" agent="Mozilla/5.0 (Macintosh; Intel Mac OS X 10_15_7) AppleWebKit/537.36 (KHTML, like Gecko) Chrome/130.0.0.0 Safari/537.36" version="24.8.4">
  <diagram name="第 1 页" id="tYQfedkqKxeU29N3HBKW">
    <mxGraphModel dx="1242" dy="785" grid="1" gridSize="10" guides="1" tooltips="1" connect="1" arrows="1" fold="1" page="1" pageScale="1" pageWidth="827" pageHeight="1169" math="0" shadow="0">
      <root>
        <mxCell id="0" />
        <mxCell id="1" parent="0" />
        <mxCell id="q8sWcmYNIx5LlEF0eHOc-5" style="edgeStyle=orthogonalEdgeStyle;rounded=0;orthogonalLoop=1;jettySize=auto;html=1;exitX=1;exitY=0.5;exitDx=0;exitDy=0;entryX=0;entryY=0.5;entryDx=0;entryDy=0;" edge="1" parent="1" source="q8sWcmYNIx5LlEF0eHOc-1" target="q8sWcmYNIx5LlEF0eHOc-2">
          <mxGeometry relative="1" as="geometry" />
        </mxCell>
        <mxCell id="q8sWcmYNIx5LlEF0eHOc-1" value="解析器" style="rounded=0;whiteSpace=wrap;html=1;fillColor=#dae8fc;strokeColor=#6c8ebf;" vertex="1" parent="1">
          <mxGeometry x="190" y="210" width="60" height="150" as="geometry" />
        </mxCell>
        <mxCell id="q8sWcmYNIx5LlEF0eHOc-7" style="edgeStyle=orthogonalEdgeStyle;rounded=0;orthogonalLoop=1;jettySize=auto;html=1;" edge="1" parent="1" source="q8sWcmYNIx5LlEF0eHOc-2" target="q8sWcmYNIx5LlEF0eHOc-6">
          <mxGeometry relative="1" as="geometry" />
        </mxCell>
        <mxCell id="q8sWcmYNIx5LlEF0eHOc-2" value="优化器" style="rounded=0;whiteSpace=wrap;html=1;fillColor=#d5e8d4;strokeColor=#82b366;" vertex="1" parent="1">
          <mxGeometry x="350" y="210" width="60" height="150" as="geometry" />
        </mxCell>
        <mxCell id="q8sWcmYNIx5LlEF0eHOc-4" style="edgeStyle=orthogonalEdgeStyle;rounded=0;orthogonalLoop=1;jettySize=auto;html=1;entryX=0;entryY=0.5;entryDx=0;entryDy=0;" edge="1" parent="1" source="q8sWcmYNIx5LlEF0eHOc-3" target="q8sWcmYNIx5LlEF0eHOc-1">
          <mxGeometry relative="1" as="geometry" />
        </mxCell>
        <mxCell id="q8sWcmYNIx5LlEF0eHOc-3" value="sql" style="text;html=1;align=center;verticalAlign=middle;whiteSpace=wrap;rounded=0;" vertex="1" parent="1">
          <mxGeometry x="50" y="270" width="60" height="30" as="geometry" />
        </mxCell>
        <mxCell id="q8sWcmYNIx5LlEF0eHOc-6" value="执行器" style="rounded=0;whiteSpace=wrap;html=1;fillColor=#ffe6cc;strokeColor=#d79b00;" vertex="1" parent="1">
          <mxGeometry x="510" y="210" width="60" height="150" as="geometry" />
        </mxCell>
        <mxCell id="q8sWcmYNIx5LlEF0eHOc-8" value="解析树" style="text;html=1;align=center;verticalAlign=middle;whiteSpace=wrap;rounded=0;" vertex="1" parent="1">
          <mxGeometry x="260" y="240" width="70" height="50" as="geometry" />
        </mxCell>
        <mxCell id="q8sWcmYNIx5LlEF0eHOc-9" value="执行计划" style="text;html=1;align=center;verticalAlign=middle;whiteSpace=wrap;rounded=0;" vertex="1" parent="1">
          <mxGeometry x="430" y="250" width="60" height="30" as="geometry" />
        </mxCell>
      </root>
    </mxGraphModel>
  </diagram>
</mxfile>
